# xmcd
#
# Track frame offsets:
#	150
#	12702
#	24976
#	37669
#	48299
#	60085
#	71105
#	85761
#	96893
#	107984
#	117862
#	130708
#	142369
#	153765
#	164646
#	174496
#	184875
#	196230
#	209368
#	226616
#	228540
#	240118
#	254692
#	268206
#	277430
#	291028
#	301770
#
# Disc length: 4206 seconds
#
# Revision: 0
# Processed by: cddbd v1.5.1PL0 Copyright (c) Steve Scherf et al.
# Submitted via: EasyCDDAExtractor 7.7.1.2
#
DISCID=7d106c1b
DTITLE=Marty Robbins - The Essential Marty Robbins - Disc 1
DYEAR=1900
DGENRE=Country
TTITLE0=Tomorrow You'll Be Gone
TTITLE1=I'll Go On Alone
TTITLE2=I Couldn't Keep From Crying
TTITLE3=Pain And Misery
TTITLE4=That's All Right
TTITLE5=Maybellene
TTITLE6=Tennessee Toddy
TTITLE7=I Can't Quit (I've Gone Too Far)
TTITLE8=Singing The Blues
TTITLE9=Knee Deep In The Blues
TTITLE10=Mister Teardrop
TTITLE11=The Story Of My Life
TTITLE12=A White Sport Coat (And A Pink Carnation)
TTITLE13=She Was Only Seventeen (He Was One Year More)
TTITLE14=Just Married
TTITLE15=Ain't I The Lucky One
TTITLE16=Kaw-Liga
TTITLE17=The Hanging Tree
TTITLE18=El Paso
TTITLE19=Big Iron
TTITLE20=Song Of The Bandit
TTITLE21=Cool Water
TTITLE22=A Little Sentimental
TTITLE23=September In The Rain
TTITLE24=All The Way
TTITLE25=Unchained Melody
TTITLE26=Don't Worry
EXTD=
EXTT0=
EXTT1=
EXTT2=
EXTT3=
EXTT4=
EXTT5=
EXTT6=
EXTT7=
EXTT8=
EXTT9=
EXTT10=
EXTT11=
EXTT12=
EXTT13=
EXTT14=
EXTT15=
EXTT16=
EXTT17=
EXTT18=
EXTT19=
EXTT20=
EXTT21=
EXTT22=
EXTT23=
EXTT24=
EXTT25=
EXTT26=
PLAYORDER=
